HIERARCHY
ROOT mixamorig:Hips
{
	OFFSET -0.000008 104.274872 1.554316
	CHANNELS 6 Xposition Yposition Zposition Xrotation Yrotation Zrotation
	JOINT mixamorig:Spine
	{
		OFFSET -0.000005 10.181595 0.131519
		CHANNELS 6 Xposition Yposition Zposition Xrotation Yrotation Zrotation
		JOINT mixamorig:Spine1
		{
			OFFSET -0.000000 9.893959 -1.470707
			CHANNELS 6 Xposition Yposition Zposition Xrotation Yrotation Zrotation
			JOINT mixamorig:Spine2
			{
				OFFSET -0.000000 9.220757 -1.370641
				CHANNELS 6 Xposition Yposition Zposition Xrotation Yrotation Zrotation
				JOINT mixamorig:Neck
				{
					OFFSET 0.000001 16.740417 -2.049036
					CHANNELS 6 Xposition Yposition Zposition Xrotation Yrotation Zrotation
					JOINT mixamorig:Head
					{
						OFFSET 0.000000 9.617874 1.685006
						CHANNELS 6 Xposition Yposition Zposition Xrotation Yrotation Zrotation
						JOINT mixamorig:HeadTop_End
						{
							OFFSET 0.000002 22.037354 7.501101
							CHANNELS 6 Xposition Yposition Zposition Xrotation Yrotation Zrotation
							End Site
							{
								OFFSET 0.000168 2310.654297 -282.823242
							}
						}
					}
				}
				JOINT mixamorig:RightShoulder
				{
					OFFSET -4.569970 11.014908 -2.160885
					CHANNELS 6 Xposition Yposition Zposition Xrotation Yrotation Zrotation
					JOINT mixamorig:RightArm
					{
						OFFSET -10.592851 -0.524811 -2.232101
						CHANNELS 6 Xposition Yposition Zposition Xrotation Yrotation Zrotation
						JOINT mixamorig:RightForeArm
						{
							OFFSET -27.841511 0.000031 -0.000004
							CHANNELS 6 Xposition Yposition Zposition Xrotation Yrotation Zrotation
							JOINT mixamorig:RightHand
							{
								OFFSET -28.328831 -0.000015 0.000015
								CHANNELS 6 Xposition Yposition Zposition Xrotation Yrotation Zrotation
								JOINT mixamorig:RightHandThumb1
								{
									OFFSET -2.464806 -1.573990 2.681852
									CHANNELS 6 Xposition Yposition Zposition Xrotation Yrotation Zrotation
									JOINT mixamorig:RightHandThumb2
									{
										OFFSET -3.215179 -1.872803 1.924282
										CHANNELS 6 Xposition Yposition Zposition Xrotation Yrotation Zrotation
										JOINT mixamorig:RightHandThumb3
										{
											OFFSET -2.654831 -1.527969 1.512609
											CHANNELS 6 Xposition Yposition Zposition Xrotation Yrotation Zrotation
											JOINT mixamorig:RightHandThumb4
											{
												OFFSET -2.018814 -1.152008 1.108052
												CHANNELS 6 Xposition Yposition Zposition Xrotation Yrotation Zrotation
												End Site
												{
													OFFSET -188.809540 -114.533607 132.431396
												}
											}
										}
									}
								}
								JOINT mixamorig:RightHandIndex1
								{
									OFFSET -9.108284 -0.517868 2.259835
									CHANNELS 6 Xposition Yposition Zposition Xrotation Yrotation Zrotation
									JOINT mixamorig:RightHandIndex2
									{
										OFFSET -3.699989 0.000000 0.001215
										CHANNELS 6 Xposition Yposition Zposition Xrotation Yrotation Zrotation
										JOINT mixamorig:RightHandIndex3
										{
											OFFSET -2.850006 0.000031 -0.000522
											CHANNELS 6 Xposition Yposition Zposition Xrotation Yrotation Zrotation
											JOINT mixamorig:RightHandIndex4
											{
												OFFSET -2.772186 -0.000015 -0.000020
												CHANNELS 6 Xposition Yposition Zposition Xrotation Yrotation Zrotation
												End Site
												{
													OFFSET -277.218445 0.000000 -0.050231
												}
											}
										}
									}
								}
								JOINT mixamorig:RightHandMiddle1
								{
									OFFSET -9.532516 -0.000031 -0.000023
									CHANNELS 6 Xposition Yposition Zposition Xrotation Yrotation Zrotation
									JOINT mixamorig:RightHandMiddle2
									{
										OFFSET -3.700005 -0.000015 0.003713
										CHANNELS 6 Xposition Yposition Zposition Xrotation Yrotation Zrotation
										JOINT mixamorig:RightHandMiddle3
										{
											OFFSET -2.949974 0.000015 -0.002054
											CHANNELS 6 Xposition Yposition Zposition Xrotation Yrotation Zrotation
											JOINT mixamorig:RightHandMiddle4
											{
												OFFSET -2.946640 0.000000 -0.000156
												CHANNELS 6 Xposition Yposition Zposition Xrotation Yrotation Zrotation
												End Site
												{
													OFFSET -294.664337 0.000000 -0.113670
												}
											}
										}
									}
								}
								JOINT mixamorig:RightHandRing1
								{
									OFFSET -9.103600 -0.043076 -1.865134
									CHANNELS 6 Xposition Yposition Zposition Xrotation Yrotation Zrotation
									JOINT mixamorig:RightHandRing2
									{
										OFFSET -3.379288 0.000000 -0.001055
										CHANNELS 6 Xposition Yposition Zposition Xrotation Yrotation Zrotation
										JOINT mixamorig:RightHandRing3
										{
											OFFSET -2.889687 -0.000015 0.000379
											CHANNELS 6 Xposition Yposition Zposition Xrotation Yrotation Zrotation
											JOINT mixamorig:RightHandRing4
											{
												OFFSET -2.638809 -0.000015 0.000941
												CHANNELS 6 Xposition Yposition Zposition Xrotation Yrotation Zrotation
												End Site
												{
													OFFSET -263.880371 0.000000 0.516020
												}
											}
										}
									}
								}
								JOINT mixamorig:RightHandPinky1
								{
									OFFSET -8.076683 -0.486710 -3.806280
									CHANNELS 6 Xposition Yposition Zposition Xrotation Yrotation Zrotation
									JOINT mixamorig:RightHandPinky2
									{
										OFFSET -3.600014 -0.000015 -0.003747
										CHANNELS 6 Xposition Yposition Zposition Xrotation Yrotation Zrotation
										JOINT mixamorig:RightHandPinky3
										{
											OFFSET -2.099983 0.000000 -0.005739
											CHANNELS 6 Xposition Yposition Zposition Xrotation Yrotation Zrotation
											JOINT mixamorig:RightHandPinky4
											{
												OFFSET -2.115768 -0.000031 -0.003680
												CHANNELS 6 Xposition Yposition Zposition Xrotation Yrotation Zrotation
												End Site
												{
													OFFSET -211.577087 0.000000 -0.350686
												}
											}
										}
									}
								}
							}
						}
					}
				}
				JOINT mixamorig:LeftShoulder
				{
					OFFSET 4.570447 11.014725 -2.160855
					CHANNELS 6 Xposition Yposition Zposition Xrotation Yrotation Zrotation
					JOINT mixamorig:LeftArm
					{
						OFFSET 10.592371 -0.524597 -2.232119
						CHANNELS 6 Xposition Yposition Zposition Xrotation Yrotation Zrotation
						JOINT mixamorig:LeftForeArm
						{
							OFFSET 27.841532 -0.000031 0.000026
							CHANNELS 6 Xposition Yposition Zposition Xrotation Yrotation Zrotation
							JOINT mixamorig:LeftHand
							{
								OFFSET 28.328846 -0.000061 0.000022
								CHANNELS 6 Xposition Yposition Zposition Xrotation Yrotation Zrotation
								JOINT mixamorig:LeftHandThumb1
								{
									OFFSET 2.466141 -1.576172 2.681732
									CHANNELS 6 Xposition Yposition Zposition Xrotation Yrotation Zrotation
									JOINT mixamorig:LeftHandThumb2
									{
										OFFSET 3.217812 -1.872070 1.916482
										CHANNELS 6 Xposition Yposition Zposition Xrotation Yrotation Zrotation
										JOINT mixamorig:LeftHandThumb3
										{
											OFFSET 2.656029 -1.528778 1.514513
											CHANNELS 6 Xposition Yposition Zposition Xrotation Yrotation Zrotation
											JOINT mixamorig:LeftHandThumb4
											{
												OFFSET 2.020889 -1.154053 1.115139
												CHANNELS 6 Xposition Yposition Zposition Xrotation Yrotation Zrotation
												End Site
												{
													OFFSET 190.885437 -115.081749 130.048782
												}
											}
										}
									}
								}
								JOINT mixamorig:LeftHandIndex1
								{
									OFFSET 9.109314 -0.518021 2.259871
									CHANNELS 6 Xposition Yposition Zposition Xrotation Yrotation Zrotation
									JOINT mixamorig:LeftHandIndex2
									{
										OFFSET 3.699989 0.000000 -0.000322
										CHANNELS 6 Xposition Yposition Zposition Xrotation Yrotation Zrotation
										JOINT mixamorig:LeftHandIndex3
										{
											OFFSET 2.850006 0.000000 0.000352
											CHANNELS 6 Xposition Yposition Zposition Xrotation Yrotation Zrotation
											JOINT mixamorig:LeftHandIndex4
											{
												OFFSET 2.774864 -0.000031 -0.000027
												CHANNELS 6 Xposition Yposition Zposition Xrotation Yrotation Zrotation
												End Site
												{
													OFFSET 277.486267 0.000000 -0.009857
												}
											}
										}
									}
								}
								JOINT mixamorig:LeftHandMiddle1
								{
									OFFSET 9.533394 0.000061 0.000044
									CHANNELS 6 Xposition Yposition Zposition Xrotation Yrotation Zrotation
									JOINT mixamorig:LeftHandMiddle2
									{
										OFFSET 3.699989 -0.000015 -0.000231
										CHANNELS 6 Xposition Yposition Zposition Xrotation Yrotation Zrotation
										JOINT mixamorig:LeftHandMiddle3
										{
											OFFSET 2.949997 -0.000015 -0.000059
											CHANNELS 6 Xposition Yposition Zposition Xrotation Yrotation Zrotation
											JOINT mixamorig:LeftHandMiddle4
											{
												OFFSET 2.952896 0.000031 0.000063
												CHANNELS 6 Xposition Yposition Zposition Xrotation Yrotation Zrotation
												End Site
												{
													OFFSET 295.289337 0.000000 0.022810
												}
											}
										}
									}
								}
								JOINT mixamorig:LeftHandRing1
								{
									OFFSET 9.104523 -0.042999 -1.865074
									CHANNELS 6 Xposition Yposition Zposition Xrotation Yrotation Zrotation
									JOINT mixamorig:LeftHandRing2
									{
										OFFSET 3.150009 -0.000031 0.000043
										CHANNELS 6 Xposition Yposition Zposition Xrotation Yrotation Zrotation
										JOINT mixamorig:LeftHandRing3
										{
											OFFSET 2.949982 -0.000015 0.000040
											CHANNELS 6 Xposition Yposition Zposition Xrotation Yrotation Zrotation
											JOINT mixamorig:LeftHandRing4
											{
												OFFSET 2.644348 0.000000 0.000057
												CHANNELS 6 Xposition Yposition Zposition Xrotation Yrotation Zrotation
												End Site
												{
													OFFSET 264.434631 0.000000 0.012105
												}
											}
										}
									}
								}
								JOINT mixamorig:LeftHandPinky1
								{
									OFFSET 8.077789 -0.486847 -3.806259
									CHANNELS 6 Xposition Yposition Zposition Xrotation Yrotation Zrotation
									JOINT mixamorig:LeftHandPinky2
									{
										OFFSET 3.599953 0.000031 0.014727
										CHANNELS 6 Xposition Yposition Zposition Xrotation Yrotation Zrotation
										JOINT mixamorig:LeftHandPinky3
										{
											OFFSET 2.100021 0.000015 0.007705
											CHANNELS 6 Xposition Yposition Zposition Xrotation Yrotation Zrotation
											JOINT mixamorig:LeftHandPinky4
											{
												OFFSET 2.125504 0.000031 0.007517
												CHANNELS 6 Xposition Yposition Zposition Xrotation Yrotation Zrotation
												End Site
												{
													OFFSET 212.550781 0.000000 0.625752
												}
											}
										}
									}
								}
							}
						}
					}
				}
			}
		}
	}
	JOINT mixamorig:RightUpLeg
	{
		OFFSET -8.207787 -6.751648 -1.599560
		CHANNELS 6 Xposition Yposition Zposition Xrotation Yrotation Zrotation
		JOINT mixamorig:RightLeg
		{
			OFFSET -0.000002 -44.370117 0.345942
			CHANNELS 6 Xposition Yposition Zposition Xrotation Yrotation Zrotation
			JOINT mixamorig:RightFoot
			{
				OFFSET 0.000003 -44.423679 -3.043532
				CHANNELS 6 Xposition Yposition Zposition Xrotation Yrotation Zrotation
				JOINT mixamorig:RightToeBase
				{
					OFFSET -0.000002 -8.728671 10.710558
					CHANNELS 6 Xposition Yposition Zposition Xrotation Yrotation Zrotation
					JOINT mixamorig:RightToe_End
					{
						OFFSET -0.000001 -0.000679 9.278119
						CHANNELS 6 Xposition Yposition Zposition Xrotation Yrotation Zrotation
						End Site
						{
							OFFSET 0.000000 -0.067690 927.812134
						}
					}
				}
			}
		}
	}
	JOINT mixamorig:LeftUpLeg
	{
		OFFSET 8.207793 -6.751686 -1.599556
		CHANNELS 6 Xposition Yposition Zposition Xrotation Yrotation Zrotation
		JOINT mixamorig:LeftLeg
		{
			OFFSET -0.000004 -44.370014 0.346954
			CHANNELS 6 Xposition Yposition Zposition Xrotation Yrotation Zrotation
			JOINT mixamorig:LeftFoot
			{
				OFFSET -0.000001 -44.423672 -3.044401
				CHANNELS 6 Xposition Yposition Zposition Xrotation Yrotation Zrotation
				JOINT mixamorig:LeftToeBase
				{
					OFFSET -0.000002 -8.728669 10.710558
					CHANNELS 6 Xposition Yposition Zposition Xrotation Yrotation Zrotation
					JOINT mixamorig:LeftToe_End
					{
						OFFSET -0.000003 -0.000679 9.278133
						CHANNELS 6 Xposition Yposition Zposition Xrotation Yrotation Zrotation
						End Site
						{
							OFFSET 0.000000 -0.068021 927.813477
						}
					}
				}
			}
		}
	}
}
MOTION
Frames: 3
Frame Time: 0.033333
0.000006 104.270477 1.554256 0.000010 0.000003 -0.000113 -0.000005 10.181587 0.131522 0.000001 -0.000003 0.000084 -0.000000 9.893967 -1.470711 0.000001 0.000000 -0.000000 -0.000000 9.220802 -1.370642 0.000000 -0.000000 -0.000000 0.000001 16.740433 -2.049030 0.000000 -0.000000 -0.000000 0.000000 9.617859 1.685014 0.000000 0.000000 0.000000 0.000002 22.037384 7.501101 0.000000 -0.000000 0.000000 -4.569968 11.014880 -2.160881 0.000008 0.000001 -0.000038 -10.592873 -0.524688 -2.232003 71.679803 10.610331 -7.674144 -27.841526 -0.000001 0.000541 -57.016660 118.144323 84.386297 -28.328827 0.000020 0.000019 -0.000320 -0.000046 0.000006 -2.464428 -1.573832 2.682365 -41.484875 -160.979376 5.556470 -3.215275 -1.872578 1.924642 155.320674 31.944959 5.284668 -2.654954 -1.527881 1.513080 149.081528 26.478649 -37.384986 -2.018838 -1.151983 1.108056 -0.000007 -0.000003 0.000000 -9.108389 -0.517539 2.260139 101.075646 15.995740 -19.427319 -3.700086 0.000313 0.001528 98.222608 13.611215 -15.667737 -2.850087 0.000352 -0.000258 95.985584 10.702141 -11.873888 -2.772181 -0.000013 -0.000013 -0.000000 -0.000001 -0.000002 -9.532591 0.000294 0.000217 91.670694 12.817583 -13.335295 -3.700067 0.000332 0.003966 91.835711 10.236782 -10.472676 -2.950064 0.000340 -0.001812 90.799203 9.710014 -9.838699 -2.946623 0.000004 -0.000159 0.000000 0.000001 -0.000001 -9.103699 -0.042735 -1.864885 90.722104 13.943316 -14.074587 -3.379309 0.000343 -0.000818 92.291872 5.725749 -5.976211 -2.889748 0.000368 0.000612 94.047682 3.791689 -4.115955 -2.638802 -0.000028 0.000939 0.000000 0.000001 -0.000000 -8.076736 -0.486369 -3.806055 82.572664 13.886836 -12.078870 -3.600017 0.000297 -0.003553 85.510984 2.580211 -2.083987 -2.099974 0.000334 -0.005534 85.259380 0.067789 0.122613 -2.115792 -0.000069 -0.003677 -0.000002 -0.000001 -0.000003 4.570446 11.014691 -2.160851 -0.000018 0.000010 -0.000021 10.592363 -0.524532 -2.232284 68.644269 7.653821 -5.229502 27.841845 0.000110 -0.000218 106.869484 -64.407728 80.671931 28.328842 -0.000028 0.000026 0.000022 -0.000088 -0.000001 2.466007 -1.576156 2.681908 -35.422836 156.173846 -16.726430 3.217776 -1.871709 1.916360 154.066146 -31.942155 -6.381451 2.656089 -1.528586 1.514445 145.477756 -27.486542 32.594540 2.020917 -1.154073 1.115148 0.000004 0.000003 0.000004 9.109368 -0.517820 2.259731 90.761043 -15.719837 15.914868 3.700066 0.000165 -0.000464 87.138652 -16.785670 15.995226 2.850065 0.000196 0.000196 85.479374 -13.871961 12.826389 2.774884 -0.000043 -0.000028 0.000001 -0.000001 -0.000002 9.533457 0.000245 -0.000098 90.885858 -14.870010 15.090179 3.700057 0.000177 -0.000370 91.581123 -15.368293 15.790147 2.950070 0.000173 -0.000211 92.134095 -18.072290 18.749530 2.952873 -0.000014 0.000061 0.000003 0.000001 0.000000 9.104574 -0.042835 -1.865237 89.402962 -14.451458 14.305103 3.150059 0.000213 -0.000072 95.379999 -13.864881 15.218695 2.950037 0.000181 -0.000059 98.426530 -14.935887 17.280163 2.644323 0.000046 0.000056 0.000002 0.000001 0.000001 8.077817 -0.486706 -3.806418 78.596763 -15.887928 13.512500 3.599991 0.000174 0.014566 78.468799 -12.640451 10.751561 2.100062 0.000188 0.007544 83.572091 -11.595242 10.799172 2.125501 -0.000000 0.007519 -0.000000 0.000005 0.000001 -8.207786 -6.751667 -1.599560 -0.077001 -0.000003 0.000080 -0.000002 -44.370110 0.345938 0.153719 -0.000000 -0.000000 0.000000 -44.423679 -3.043532 -0.076700 0.000000 -0.000002 -0.000006 -8.728667 10.710559 -0.000009 -0.000000 -0.000000 -0.000001 -0.000679 9.278123 0.000000 -0.000000 -0.000000 8.207792 -6.751710 -1.599556 -0.074518 -0.000003 0.000081 -0.000002 -44.370014 0.346960 0.148822 0.000002 0.000000 -0.000001 -44.423664 -3.044403 -0.074314 0.000000 -0.000002 -0.000004 -8.728671 10.710558 0.000007 -0.000000 -0.000000 0.000000 -0.000680 9.278137 -0.000000 0.000000 -0.000001 
0.000006 104.270477 1.554256 0.000010 0.000003 -0.000113 -0.000005 10.181587 0.131522 0.000001 -0.000003 0.000084 -0.000000 9.893967 -1.470711 0.000001 0.000000 -0.000000 -0.000000 9.220802 -1.370642 0.000000 -0.000000 -0.000000 0.000001 16.740433 -2.049030 0.000000 -0.000000 -0.000000 0.000000 9.617859 1.685014 0.000000 0.000000 0.000000 0.000002 22.037384 7.501101 0.000000 -0.000000 0.000000 -4.569968 11.014880 -2.160881 0.000008 0.000001 -0.000038 -10.592879 -0.524700 -2.232001 70.788688 13.347502 -9.504872 -27.841522 0.000020 0.000549 -56.171524 116.696842 81.762637 -28.328825 0.000021 0.000026 -0.000319 -0.000044 0.000006 -2.464426 -1.573731 2.682316 -50.476881 -168.661235 -17.054130 -3.215277 -1.872567 1.924640 152.535623 31.903957 7.628543 -2.654979 -1.527869 1.513068 145.619456 27.399736 -34.712118 -2.018838 -1.151999 1.108052 -0.000001 -0.000002 0.000000 -9.108384 -0.517550 2.260135 100.556067 14.873652 -17.911891 -3.700058 0.000329 0.001516 97.970294 12.170010 -13.949156 -2.850072 0.000366 -0.000258 96.267275 9.837807 -10.969768 -2.772157 0.000002 -0.000020 -0.000001 0.000001 0.000000 -9.532593 0.000271 0.000232 91.932188 15.837573 -16.520414 -3.700079 0.000330 0.003964 92.320307 12.729603 -13.152064 -2.950081 0.000346 -0.001791 94.885104 11.199810 -12.182967 -2.946614 -0.000002 -0.000154 0.000002 0.000000 -0.000001 -9.103704 -0.042767 -1.864882 89.660672 18.351926 -18.200499 -3.379344 0.000300 -0.000809 90.498921 10.727902 -10.838895 -2.889748 0.000328 0.000634 97.905680 6.838220 -7.902643 -2.638804 -0.000029 0.000937 -0.000001 0.000001 0.000001 -8.076756 -0.486391 -3.806068 79.074562 18.732636 -15.378588 -3.600042 0.000259 -0.003528 83.541471 9.339503 -8.024136 -2.100003 0.000335 -0.005491 88.857981 4.859531 -4.551101 -2.115770 -0.000056 -0.003683 0.000000 -0.000001 -0.000002 4.570446 11.014691 -2.160851 -0.000018 0.000010 -0.000021 10.592357 -0.524555 -2.232264 69.592176 15.262867 -10.638861 27.841837 0.000091 -0.000211 105.836117 -66.056399 81.401730 28.328833 -0.000044 0.000022 0.000022 -0.000088 -0.000000 2.466208 -1.576122 2.681861 -2.457731 159.261802 -78.215256 3.217796 -1.871735 1.916376 162.234738 -31.739541 0.005726 2.656109 -1.528630 1.514452 145.578515 -26.103487 48.188648 2.020891 -1.154073 1.115149 0.000001 0.000001 0.000002 9.109386 -0.517835 2.259753 94.344863 -18.301459 19.703822 3.700051 0.000193 -0.000468 90.740900 -12.439833 12.617462 2.850036 0.000219 0.000198 89.320248 -9.754284 9.638541 2.774888 -0.000045 -0.000026 -0.000000 -0.000003 -0.000000 9.533478 0.000229 -0.000092 93.560758 -17.499749 18.593976 3.700049 0.000201 -0.000385 94.531410 -10.742266 11.618633 2.950051 0.000193 -0.000196 95.510845 -11.153612 12.276457 2.952881 -0.000031 0.000067 -0.000003 -0.000001 0.000000 9.104601 -0.042833 -1.865218 91.875128 -17.286835 17.854955 3.150072 0.000206 -0.000101 96.920582 -11.311836 12.758564 2.950028 0.000210 -0.000067 98.964428 -10.302096 12.044696 2.644315 0.000032 0.000052 -0.000002 0.000002 0.000001 8.077853 -0.486724 -3.806395 80.982227 -18.497624 16.344860 3.599997 0.000178 0.014573 82.463012 -15.310166 13.894318 2.100037 0.000197 0.007546 85.079965 -11.439542 10.942760 2.125496 -0.000043 0.007510 0.000001 0.000000 -0.000000 -8.207786 -6.751667 -1.599560 -0.077001 -0.000003 0.000080 -0.000002 -44.370110 0.345938 0.153719 -0.000000 -0.000000 0.000000 -44.423679 -3.043532 -0.076700 0.000000 -0.000002 -0.000006 -8.728667 10.710559 -0.000009 -0.000000 -0.000000 -0.000001 -0.000679 9.278123 0.000000 -0.000000 -0.000000 8.207792 -6.751710 -1.599556 -0.074518 -0.000003 0.000081 -0.000002 -44.370014 0.346960 0.148822 0.000002 0.000000 -0.000001 -44.423664 -3.044403 -0.074314 0.000000 -0.000002 -0.000004 -8.728671 10.710558 0.000007 -0.000000 -0.000000 0.000000 -0.000680 9.278137 -0.000000 0.000000 -0.000001 
0.000006 104.270477 1.554256 0.000010 0.000003 -0.000113 -0.000005 10.181587 0.131522 0.000001 -0.000003 0.000084 -0.000000 9.893967 -1.470711 0.000001 0.000000 -0.000000 -0.000000 9.220802 -1.370642 0.000000 -0.000000 -0.000000 0.000001 16.740433 -2.049030 0.000000 -0.000000 -0.000000 0.000000 9.617859 1.685014 0.000000 0.000000 0.000000 0.000002 22.037384 7.501101 0.000000 -0.000000 0.000000 -4.569968 11.014880 -2.160881 0.000008 0.000001 -0.000038 -10.592884 -0.524717 -2.231977 70.740877 17.630195 -12.564549 -27.841526 0.000016 0.000533 -55.522321 114.828649 78.944337 -28.328821 0.000021 0.000019 -0.000322 -0.000043 0.000007 -2.464447 -1.573691 2.682302 -52.844501 -173.347264 -25.146330 -3.215278 -1.872567 1.924660 153.379766 31.722335 5.591183 -2.654956 -1.527894 1.513080 146.290972 27.030342 -37.512048 -2.018834 -1.151997 1.108063 -0.000002 -0.000000 0.000002 -9.108367 -0.517548 2.260121 100.036795 15.627787 -18.643326 -3.700071 0.000322 0.001505 97.096269 12.975686 -14.647098 -2.850067 0.000363 -0.000271 96.065805 10.590316 -11.766404 -2.772136 -0.000015 -0.000018 -0.000001 -0.000000 0.000001 -9.532589 0.000273 0.000224 91.267891 16.623668 -17.136526 -3.700088 0.000318 0.003964 91.531952 13.258090 -13.515658 -2.950056 0.000343 -0.001798 94.475081 11.798088 -12.742230 -2.946618 -0.000000 -0.000153 -0.000001 0.000001 0.000000 -9.103702 -0.042758 -1.864897 89.092141 19.149627 -18.809243 -3.379319 0.000298 -0.000816 89.784332 10.886423 -10.863318 -2.889754 0.000349 0.000656 97.450011 6.932633 -7.947188 -2.638801 -0.000028 0.000949 0.000001 0.000001 -0.000000 -8.076746 -0.486401 -3.806067 79.623361 19.156883 -15.883499 -3.600055 0.000273 -0.003544 83.666505 9.158605 -7.880333 -2.100027 0.000323 -0.005506 88.711515 4.985220 -4.662004 -2.115758 -0.000042 -0.003677 0.000001 -0.000000 -0.000004 4.570446 11.014691 -2.160851 -0.000018 0.000010 -0.000021 10.592358 -0.524532 -2.232265 69.572969 9.677392 -6.730789 27.841839 0.000090 -0.000218 105.904890 -66.943032 82.429735 28.328856 -0.000029 0.000017 0.000019 -0.000089 -0.000000 2.466249 -1.576062 2.681836 7.504751 163.038282 -94.820518 3.217859 -1.871807 1.916404 166.235548 -24.136560 30.612430 2.656107 -1.528649 1.514458 148.672933 -25.495018 45.602711 2.020895 -1.154064 1.115128 0.000004 0.000006 0.000001 9.109386 -0.517822 2.259725 97.150432 -19.698044 22.247326 3.700039 0.000182 -0.000469 94.645269 -12.186112 13.225833 2.850043 0.000236 0.000195 92.714279 -9.139969 9.580222 2.774879 -0.000033 -0.000025 -0.000001 0.000001 0.000000 9.533471 0.000236 -0.000083 95.779948 -19.247502 21.239670 3.700060 0.000226 -0.000380 98.141301 -10.502994 12.098277 2.950047 0.000230 -0.000206 98.917095 -9.745023 11.386523 2.952859 -0.000028 0.000058 0.000004 0.000003 -0.000001 9.104595 -0.042812 -1.865208 94.994278 -18.551381 20.211964 3.150047 0.000231 -0.000069 100.109646 -12.599305 15.020984 2.950022 0.000227 -0.000065 101.169971 -10.138253 12.322599 2.644337 0.000047 0.000050 0.000006 0.000001 -0.000002 8.077832 -0.486692 -3.806406 84.434730 -19.583349 18.347836 3.599996 0.000192 0.014573 83.731043 -17.513838 16.197326 2.100045 0.000176 0.007534 84.558903 -12.688834 11.988427 2.125499 -0.000002 0.007507 0.000000 -0.000000 0.000005 -8.207786 -6.751667 -1.599560 -0.077001 -0.000003 0.000080 -0.000002 -44.370110 0.345938 0.153719 -0.000000 -0.000000 0.000000 -44.423679 -3.043532 -0.076700 0.000000 -0.000002 -0.000006 -8.728667 10.710559 -0.000009 -0.000000 -0.000000 -0.000001 -0.000679 9.278123 0.000000 -0.000000 -0.000000 8.207792 -6.751710 -1.599556 -0.074518 -0.000003 0.000081 -0.000002 -44.370014 0.346960 0.148822 0.000002 0.000000 -0.000001 -44.423664 -3.044403 -0.074314 0.000000 -0.000002 -0.000004 -8.728671 10.710558 0.000007 -0.000000 -0.000000 0.000000 -0.000680 9.278137 -0.000000 0.000000 -0.000001 
